<svg height="64" width="64" xmlns="http://www.w3.org/2000/svg"><circle cx="32" cy="32" fill="#E0995E" r="32"/><path d="M52 42.921C52 44.069 51.105 45 50 45H14c-1.105 0-2-.931-2-2.079V26.079c0-1.148.895-2.079 2-2.079h36c1.105 0 2 .931 2 2.079v16.842z" fill="#231F20" opacity=".2"/><path d="M52 40.921C52 42.069 51.105 43 50 43H14c-1.105 0-2-.931-2-2.079V24.079c0-1.148.895-2.079 2-2.079h36c1.105 0 2 .931 2 2.079v16.842z" fill="#F5CF87"/><g opacity=".2" fill="#231F20"><path d="M39.885 38h-15.77c-.892 0-1.615.672-1.615 1.5s.723 1.5 1.615 1.5h15.771c.892 0 1.615-.672 1.615-1.5s-.724-1.5-1.616-1.5z"/><circle cx="20" cy="39.5" r="1.5"/><circle cx="16" cy="39.5" r="1.5"/><circle cx="48" cy="39.5" r="1.5"/><circle cx="44" cy="39.5" r="1.5"/><path d="M20 33.85h-4a1.5 1.5 0 000 3h4a1.5 1.5 0 000-3zM48 33.85h-4a1.5 1.5 0 000 3h4a1.5 1.5 0 000-3z"/><circle cx="20" cy="31.5" r="1.5"/><circle cx="16" cy="31.5" r="1.5"/><circle cx="48" cy="31.5" r="1.5"/><circle cx="44" cy="31.5" r="1.5"/><circle cx="20" cy="27.516" r="1.5"/><circle cx="16" cy="27.516" r="1.5"/><circle cx="28" cy="35.35" r="1.5"/><circle cx="24" cy="35.35" r="1.5"/><circle cx="28" cy="31.5" r="1.5"/><circle cx="24" cy="31.5" r="1.5"/><circle cx="28" cy="27.516" r="1.5"/><circle cx="24" cy="27.516" r="1.5"/><circle cx="36" cy="35.35" r="1.5"/><circle cx="32" cy="35.35" r="1.5"/><circle cx="36" cy="31.5" r="1.5"/><circle cx="32" cy="31.5" r="1.5"/><circle cx="36" cy="27.516" r="1.5"/><circle cx="40" cy="35.35" r="1.5"/><circle cx="40" cy="31.5" r="1.5"/><circle cx="40" cy="27.516" r="1.5"/><circle cx="32" cy="27.516" r="1.5"/><circle cx="48" cy="27.516" r="1.5"/><circle cx="44" cy="27.516" r="1.5"/></g><g fill="#FFF"><path d="M39.885 37h-15.77c-.892 0-1.615.672-1.615 1.5s.723 1.5 1.615 1.5h15.771c.892 0 1.615-.672 1.615-1.5s-.724-1.5-1.616-1.5z"/><circle cx="20" cy="38.5" r="1.5"/><circle cx="16" cy="38.5" r="1.5"/><circle cx="48" cy="38.5" r="1.5"/><circle cx="44" cy="38.5" r="1.5"/><path d="M20 32.85h-4a1.5 1.5 0 000 3h4a1.5 1.5 0 000-3zM48 32.85h-4a1.5 1.5 0 000 3h4a1.5 1.5 0 000-3z"/><circle cx="20" cy="30.5" r="1.5"/><circle cx="16" cy="30.5" r="1.5"/><circle cx="48" cy="30.5" r="1.5"/><circle cx="44" cy="30.5" r="1.5"/><circle cx="20" cy="26.516" r="1.5"/><circle cx="16" cy="26.516" r="1.5"/><circle cx="28" cy="34.35" r="1.5"/><circle cx="24" cy="34.35" r="1.5"/><circle cx="28" cy="30.5" r="1.5"/><circle cx="24" cy="30.5" r="1.5"/><circle cx="28" cy="26.516" r="1.5"/><circle cx="24" cy="26.516" r="1.5"/><circle cx="36" cy="34.35" r="1.5"/><circle cx="32" cy="34.35" r="1.5"/><circle cx="36" cy="30.5" r="1.5"/><circle cx="32" cy="30.5" r="1.5"/><circle cx="36" cy="26.516" r="1.5"/><circle cx="40" cy="34.35" r="1.5"/><circle cx="40" cy="30.5" r="1.5"/><circle cx="40" cy="26.516" r="1.5"/><circle cx="32" cy="26.516" r="1.5"/><circle cx="48" cy="26.516" r="1.5"/><circle cx="44" cy="26.516" r="1.5"/></g></svg>
